<?xml version="1.0" encoding="UTF-8" standalone="no"?><!-- Generator: Gravit.io --><svg xmlns="http://www.w3.org/2000/svg" xmlns:xlink="http://www.w3.org/1999/xlink" style="isolation:isolate" viewBox="0 0 500 500" width="500pt" height="500pt"><defs><clipPath id="_clipPath_OYUglB6YGLHf60lkTua7LdCZZYOFUqe4"><rect width="500" height="500"/></clipPath></defs><g clip-path="url(#_clipPath_OYUglB6YGLHf60lkTua7LdCZZYOFUqe4)"><rect width="500" height="500" style="fill:rgb(0,0,0)" fill-opacity="0"/><path d=" M 395.755 428.173 C 441.621 379.45 466 316.506 466 249.884 C 466 183.263 440.231 119.621 393.667 71.594 C 351.384 26.549 295.466 0 243.93 0 L 34 0 L 34 453.927 L 238.16 453.927 C 279.048 453.927 322.032 432.448 361.432 393.072 C 397.946 353.001 417.943 301.395 417.943 249.884 C 417.943 199.072 397.247 148.956 359.241 108.089 C 324.119 70.898 278.252 48.724 238.857 48.724 L 132.2 48.724 L 132.2 61.55 L 132.897 357.275 L 157.968 357.275 L 157.271 74.477 L 238.857 74.477 C 270.396 74.477 308.401 94.562 339.941 125.986 C 373.567 161.087 392.172 206.23 392.172 249.884 C 392.172 309.347 360.638 370.897 312.68 403.115 C 289.001 419.523 263.928 427.476 238.16 427.476 L 59.77 428.173 L 59.77 26.549 L 243.93 26.549 C 306.214 26.549 378.542 75.173 414.359 141.798 C 432.27 175.405 440.925 211.203 440.925 249.884 C 440.925 323.664 400.828 399.539 340.637 441.795 C 309.794 462.48 277.557 473.221 243.93 473.221 L 34 474.015 L 34 499.768 L 243.93 499.768 C 297.658 499.768 352.774 473.221 395.755 428.173 Z  M 185.13 97.347 L 185.13 123.2 L 236.07 123.2 C 259.65 123.2 286.909 138.216 309.097 163.275 C 331.285 188.332 344.915 221.248 344.915 250.581 C 344.915 294.232 324.119 334.405 287.604 360.162 C 269.7 372.289 252.487 378.754 236.07 378.754 L 108.522 378.06 L 108.522 47.232 L 82.752 47.232 L 82.055 403.115 L 236.07 403.812 C 281.836 403.812 327.005 373.784 352.076 325.756 C 364.215 301.395 370.685 276.337 370.685 250.581 C 370.685 202.65 342.727 151.044 299.049 120.318 C 276.861 105.303 256.067 97.347 236.07 97.347" fill="rgb(255,255,255)"/></g></svg>